<?xml version="1.0" encoding="utf-8" ?><svg xmlns="http://www.w3.org/2000/svg" xmlns:xlink="http://www.w3.org/1999/xlink" width="1024" height="1024" viewBox="0 0 1024 1024"><path fill="#00D4FF" d="M568.825 402.69C602.676 399.858 628.474 410.654 647.408 439.063C641.511 445.903 630.028 455.759 623.123 462.589C620.209 458.472 617.199 454.294 613.687 450.66C604.251 441.002 591.403 435.43 577.904 435.143C566.948 435.009 555.776 437.169 547.598 445.064C539.436 452.201 538.59 470.178 546.875 477.757C562.141 490.992 585.239 493.647 604.084 500.311C630.103 509.511 652.758 527.713 653.582 557.619C654.059 573.992 648.025 589.887 636.802 601.818C621.584 617.797 599.756 622.656 578.552 623.105C542.358 622.698 522.221 611.824 501.47 583.106C507.703 576.5 518.599 565.826 525.368 559.898C530.32 566.223 534.796 571.799 541.184 576.845C553.887 586.852 570.051 591.392 586.107 589.463C603.106 587.418 619.254 576.933 617.172 557.479C615.698 543.7 602.132 537.048 590.615 532.572C568.329 524.096 545.65 521.806 525.839 507.386C500.662 489.061 499.18 452.603 517.183 428.724C529.963 411.774 548.034 405.272 568.825 402.69Z"/><path fill="#00D4FF" d="M298.834 461.704C300.913 462.708 320.6 494.927 322.941 498.913C320.94 515.132 322.525 531.441 329.133 546.484C336.256 562.849 349.697 575.636 366.396 581.934C382.902 588.321 402.134 589.591 418.765 583.064C425.074 580.587 429.926 577.63 435.965 574.934C442.339 583.669 448.956 594.665 455.263 603.863C452.017 606.543 448.775 608.336 445.172 610.468C438.915 614.009 432.276 616.826 425.381 618.864C397.356 626.854 367.308 623.454 341.776 609.404C317.16 595.973 298.813 571.715 290.928 544.9C283.475 519.549 285.879 484.961 298.834 461.704Z"/><path fill="#00D4FF" d="M732.162 400.238C738.762 400.876 753.654 400.242 761.056 400.305C755.967 413.511 751.02 428.92 746.066 442.52L702.601 562.478L687.822 603.681C686.541 607.28 682.623 619.338 681.246 622.251L680.125 622.595C669.481 622.53 658.837 622.54 648.193 622.625C652.229 609.516 658.529 594.352 663.242 581.038L705.174 465.03L721.763 419.435C723.833 413.724 726.24 406.611 728.705 400.991C728.962 400.406 731.184 400.365 732.162 400.238Z"/><path fill="#00D4FF" d="M268.034 431.46C269.012 432.763 268.658 458.377 268.675 461.955C263.783 465.695 251.836 472.354 246.055 475.788C234.633 482.71 223.166 489.556 211.656 496.329C202.952 501.482 192.831 507.212 184.602 512.908C196.024 520.27 209.15 527.743 220.896 534.739L269.043 563.891C268.717 574.146 269.175 584.445 268.848 594.733C262.151 590.436 255.146 586.514 248.236 582.558C238.364 577.03 228.177 570.55 218.369 564.737C196.19 551.784 174.139 538.612 152.221 525.222C151.843 517.809 152.077 508.32 152.049 500.748C163.864 493.442 177.041 485.967 189.079 478.786L268.034 431.46Z"/><path fill="#00D4FF" d="M757.175 432.713C762.684 435.456 768.917 439.443 774.258 442.66L801.545 459.03C824.965 472.964 849.57 486.778 872.564 501.37C871.824 508.481 872.173 518.258 872.327 525.428L777.336 582L756.396 594.317C756.714 584.2 756.208 573.802 756.211 563.586C784.067 547.711 812.105 529.775 839.468 512.822C811.97 496.648 784.85 479.619 757.265 463.332C756.89 453.732 757.175 442.439 757.175 432.713Z"/><path fill="#00D4FF" d="M397.123 402.264L398.08 402.288C430.251 403.165 454.038 415.095 475.88 438.133C472.877 441.502 453.715 460.793 450.496 463.295C429.376 441.494 407.485 434.012 377.389 439.957C377.046 440.034 376.703 440.117 376.361 440.204C353.672 446.063 341.462 457.844 329.895 477.561C324.712 470.104 312.848 452.744 309.142 444.672C311.589 441.883 314.1 439.151 316.674 436.478C340.252 411.855 363.457 403.016 397.123 402.264Z"/><path fill="#00D4FF" d="M397.125 500.456C407.067 501.252 417.528 500.691 427.579 500.731C451.547 500.826 476.135 501.346 500.06 500.693C500.928 533.66 496.786 555.063 477.403 582.556C474.517 586.256 471.831 589.423 468.772 592.954C461.603 583.276 454.825 573.314 448.453 563.094C455.029 550.857 458.261 550.124 462.937 535.08C441.428 534.667 418.671 534.99 397.069 534.993C396.987 523.499 397.237 512 397.125 500.456Z"/></svg>